<svg xmlns="http://www.w3.org/2000/svg" viewBox="0 0 64 64"><title>Artboard-37</title><g id="Trash_Bin_File" data-name="Trash Bin File"><path d="M23,36a1,1,0,0,0-1,1V56a1,1,0,0,0,2,0V37A1,1,0,0,0,23,36Z" style="fill:#28282b"/><path d="M32.1,36.006a.99.99,0,0,0-1.1.89l-2,19a1,1,0,0,0,.891,1.1A.924.924,0,0,0,30,57,1,1,0,0,0,31,56.1l2-19A1,1,0,0,0,32.1,36.006Z" style="fill:#28282b"/><path d="M13.9,36.006a1,1,0,0,0-.891,1.1l2,19A1,1,0,0,0,16,57a.924.924,0,0,0,.1-.006A1,1,0,0,0,17,55.9l-2-19A1,1,0,0,0,13.9,36.006Z" style="fill:#28282b"/><path d="M15,7H31a1,1,0,0,0,0-2H15a1,1,0,0,0,0,2Z" style="fill:#28282b"/><path d="M15,12H26a1,1,0,0,0,0-2H15a1,1,0,0,0,0,2Z" style="fill:#28282b"/><path d="M15,17h8a1,1,0,0,0,0-2H15a1,1,0,0,0,0,2Z" style="fill:#28282b"/><path d="M15,22H26a1,1,0,0,0,0-2H15a1,1,0,0,0,0,2Z" style="fill:#28282b"/><path d="M31,25H15a1,1,0,0,0,0,2H31a1,1,0,0,0,0-2Z" style="fill:#28282b"/><path d="M60.715,40.119l-5.61-5.739,2.879-2.815a5,5,0,0,0,.081-7.07L48.234,14.438a4.964,4.964,0,0,0-3.518-1.5,5.035,5.035,0,0,0-3.552,1.424l-2.879,2.814L37,15.857V4a4,4,0,0,0-4-4H7A4,4,0,0,0,3,4v9a1,1,0,0,0,1,1H9V30H6a1,1,0,0,0-.992,1.124l4,32A1,1,0,0,0,10,64H36a1,1,0,0,0,.992-.876L40.96,31.379,54.981,45.724a1,1,0,0,0,1.415.015l4.3-4.206a1,1,0,0,0,.016-1.414ZM42.487,21.471l2.156-2.107,8.416,8.61L50.9,30.081Zm.075-5.683a3.135,3.135,0,0,1,2.131-.854,2.98,2.98,0,0,1,2.111.9l9.83,10.057a3,3,0,0,1-.048,4.242L53.707,32.95,52.3,31.511l2.871-2.806a1,1,0,0,0,.016-1.414l-9.814-10.04a1,1,0,0,0-1.415-.016l-2.87,2.806L39.683,18.6ZM5,12V4A2,2,0,0,1,9,4v8Zm6,1V4a4.112,4.112,0,0,0-.535-2H33a2,2,0,0,1,2,2v9.808l-2.325-2.377a1,1,0,0,0-.7-.3,1.12,1.12,0,0,0-.711.285c-1.563,1.531-.664.651-4.3,4.208a1,1,0,0,0-.017,1.414L35,25.281V30H11ZM35.117,62H10.883L7.133,32H38.867ZM37,30V27.328L39.612,30ZM55.713,43.61,36.721,24.18l-.006-.009-7.641-7.816,2.869-2.809L58.586,40.8Z" style="fill:#28282b"/></g></svg>